<?xml version="1.0" encoding="UTF-8"?>
<svg width="60px" height="34px" viewBox="0 0 60 34" version="1.1" xmlns="http://www.w3.org/2000/svg" xmlns:xlink="http://www.w3.org/1999/xlink">
    <!-- Generator: Sketch 62 (91390) - https://sketch.com -->
    <title>Artboard</title>
    <desc>Created with Sketch.</desc>
    <g id="Artboard" stroke="none" stroke-width="1" fill="none" fill-rule="evenodd">
        <g id="g14" transform="translate(2.000000, 7.000000)" fill="#FFFFFF" fill-rule="nonzero">
            <g id="g20" transform="translate(0.143131, 0.022727)">
                <path d="M20.4886187,12.9527275 C21.1607638,12.1170895 21.5445309,11.2235765 22.0198967,10.2862416 C22.2417867,10.4169517 22.5437466,12.7688267 22.6113402,13.143126 C22.8229648,14.3125657 23.575022,17.4381235 25.1764204,17.4381235 C26.0281306,17.4381235 26.6022019,16.6206188 26.8829994,15.9433441 C27.2705568,15.008578 27.5175575,14.0846919 27.6971226,13.1008152 C27.7939329,12.5702682 27.9711291,11.3900997 28.1137388,10.9122901 C29.3146297,11.449637 31.622128,12.6588186 31.6619261,12.6798229 C32.4270913,13.0835887 34.052179,12.5773704 33.2315808,11.1779413 C32.5880208,10.0801277 29.7850997,7.58651161 29.7850997,7.29290502 C29.7850997,7.12456856 32.2375767,5.79465006 32.5867573,5.72634837 C32.6410849,5.81444546 32.7209969,5.91115582 32.7595315,6.00650618 C33.060228,6.74951371 33.1954151,7.45912594 33.5965543,8.19034689 C35.0270738,10.7974465 38.5326202,13.936302 41.8139077,13.8515293 C42.8255998,13.8252362 43.7804376,13.5672915 44.642729,13.1367793 C44.4746927,13.6815306 44.4765879,14.2778104 44.7205879,14.886179 C45.5947241,17.0653353 48.9011222,18.1114694 50.9793078,17.2658582 C52.4586272,16.6639873 53.1860475,15.3225845 52.5687036,13.783681 C51.8104873,11.8939002 49.5140441,10.3226591 47.4503879,10.7214382 C48.8204206,8.8219864 49.3602214,6.35254792 48.5456244,4.17596049 C47.3856371,1.0762425 42.9519429,0.226400249 39.9122865,0.226400249 C39.019041,0.226400249 35.8903128,0.78429811 35.7995037,0.776440394 C34.1264056,0.63318818 33.1837284,0.486158218 31.4834665,0.903826065 L28.4221739,2.03624388 C28.0973142,2.11784324 27.7081776,1.47985712 27.4960792,1.29535189 C26.0810368,0.0641081836 23.8703489,0.652681361 22.4565699,1.48575041 C20.8403262,0.500664772 18.006767,0.113218911 16.3952611,1.33690712 C16.1094099,1.55390098 15.4729567,2.46600052 15.3808842,2.50120914 C11.9607772,0.426923126 6.82887962,-0.197463105 2.86565542,0.766316029 C2.25194395,0.775231515 0.896598656,1.6865755 0.645175945,2.21833135 C-0.0437096491,3.67351997 0.0406243508,5.08110897 0.278781039,6.67184321 C0.538731908,8.40749186 0.894545581,10.1499405 1.2078764,11.8783358 C1.44619101,13.1935967 2.35112326,17.4802832 4.08170747,17.4802832 C6.26175716,17.4802832 6.38888988,13.295747 7.06687838,13.0375001 C7.66969276,13.2147521 8.85036876,13.418146 9.47703039,13.418146 C12.3672861,13.418146 14.2867532,11.8949579 16.1174643,9.98190623 C16.1733711,9.92357779 16.2474397,9.87356041 16.3095057,9.82157859 C16.4612753,9.9495687 17.5203461,12.2564129 18.0121365,12.8892613 L17.9360148,13.0713487 C14.848664,14.5366617 16.9810192,19.4016459 20.4744051,18.1877799 C21.4974681,17.8322182 22.1691394,16.8132839 22.1691394,15.787852 C22.1691394,14.0833319 20.5137293,13.1801479 20.4886187,12.9527275 M10.9585608,9.32790245 C9.93486609,9.32790245 4.53448945,4.95538551 10.0741593,4.95538551 C14.4895338,4.95538551 11.976728,9.32790245 10.9585608,9.32790245 M41.9242999,9.11226858 C40.9966259,9.11226858 36.4495388,4.79626675 41.1504486,4.79626675 C45.0047019,4.79626675 42.7731674,9.11226858 41.9242999,9.11226858 M49.2575676,14.2847615 C49.5704246,14.4907243 49.8992325,14.6926072 50.1500235,14.9446585 C50.3480662,15.1518303 50.4894126,15.4032772 50.4447187,15.6390087 C50.34854,16.1456803 49.6487574,16.2632438 49.0244647,16.1435647 C48.6293267,16.0678587 48.2472968,15.8966511 47.9508644,15.664244 C47.8295751,15.566627 47.7084436,15.4507257 47.6613808,15.3242467 C47.5993148,15.1577236 47.7488734,15.0610132 47.9620774,15.1096706 C48.1242703,15.1466925 48.2760399,15.236754 48.3921176,15.3349755 C48.548783,15.4659878 48.6893397,15.6137733 48.9211792,15.6562352 C49.0811611,15.6853994 49.2195068,15.6415775 49.2141372,15.5113208 C49.2090835,15.3976861 49.0967961,15.3032424 48.9868776,15.2234564 C48.8954368,15.1574213 48.8008374,15.0939552 48.7057643,15.0310934 C48.375693,14.8053352 48.0484644,14.5702081 47.7957783,14.292317 C47.6781213,14.1588869 47.5885757,14.0156347 47.5291944,13.8666403 C47.4644436,13.6973972 47.4374378,13.5213541 47.4764462,13.3584576 C47.5320371,13.1268061 47.7559802,12.9744873 48.0697848,12.958923 C48.6465409,12.9432075 49.2360893,12.9856694 49.8251639,13.064851 C50.135652,13.1126018 50.4586164,13.2816938 50.4853064,13.5409984 C50.5142074,13.8211562 50.173239,13.9160533 49.8502745,13.8811469 C49.4170757,13.8272006 48.9845087,13.7808099 48.5528891,13.7433346 C48.7304012,13.9542841 49.0102511,14.1220161 49.2575676,14.2847615" id="path22" transform="translate(26.447515, 9.303361) scale(-1, 1) rotate(180.000000) translate(-26.447515, -9.303361) "></path>
            </g>
        </g>
    </g>
</svg>