<?xml version="1.0" encoding="UTF-8"?>
<svg width="106px" height="34px" viewBox="0 0 106 34" version="1.1" xmlns="http://www.w3.org/2000/svg" xmlns:xlink="http://www.w3.org/1999/xlink">
    <!-- Generator: Sketch 62 (91390) - https://sketch.com -->
    <title>Artboard</title>
    <desc>Created with Sketch.</desc>
    <g id="Artboard" stroke="none" stroke-width="1" fill="none" fill-rule="evenodd">
        <g id="Group-11" transform="translate(6.000000, -6.000000)" fill="#FFFFFF">
            <path d="M6.37487724,11.8384824 C6.70369894,12.0424468 6.94060131,12.2816986 7.08558436,12.5562377 C7.22918201,12.8281535 7.92774364,14.3563096 9.18126927,17.1407061 C10.1292707,16.8441788 11.1039916,16.6825436 12.0725531,16.6825436 C14.2059135,16.6825436 15.4323004,17.4528892 16.694834,18.2944688 C17.9573319,19.1360245 18.9369567,20.2126666 19.5315687,21.419069 L19.4319202,21.4159601 C19.6053549,21.4159601 19.7728763,21.4412781 19.9309901,21.4884197 L19.9301746,20.1897873 C19.9301746,20.041449 20.0417126,19.921197 20.1793017,19.921197 C20.3168909,19.921197 20.4284289,20.041449 20.4284289,20.1897873 L20.4293869,21.729206 C20.8806349,22.0444101 21.1758105,22.5676593 21.1758105,23.1598504 L21.1758105,24.6546135 C21.1758105,25.5019501 20.5714882,26.2081398 19.7703356,26.3656903 C19.3595507,27.6431177 18.8190159,28.7952075 17.8040258,29.5730443 C16.7875867,30.3519914 15.8008573,30.9057382 14.6663156,31.2971553 C14.476972,32.15599 14.2613462,32.8483067 14.0187757,33.37481 C13.6452753,34.185499 13.260309,34.5011785 12.8638766,34.3218483 C12.7302928,34.250083 12.6340512,34.1659018 12.5751519,34.0693047 C12.5174872,33.9747325 12.2395314,33.4482721 11.7412844,32.4899234 C11.6845536,32.5037003 11.6277879,32.5167968 11.5707757,32.5288315 C11.556936,32.5627145 11.5422699,32.5953787 11.5275039,32.6274285 C11.1540035,33.4381175 10.7690372,33.7537969 10.3726048,33.5744667 C10.239021,33.5027015 10.1427794,33.4185203 10.08388,33.3219232 C10.0458152,33.2594955 9.91176081,33.0088769 9.68171678,32.5700674 C9.56140223,32.5533854 9.44612218,32.5341205 9.33531383,32.5110972 L9.28535925,32.6274285 L9.28535925,32.6274285 C8.91185887,33.4381175 8.52689251,33.7537969 8.13046017,33.5744667 C7.99687636,33.5027015 7.90063477,33.4185203 7.8417354,33.3219232 C7.79062456,33.2380996 7.56645127,32.8149811 7.16921552,32.0525677 C3.91423651,31.7410051 1.38721891,30.4552201 1.3403977,27.9660197 C1.333846,27.6177058 1.27303804,26.9668804 1.25242898,26.3259757 C0.528485202,26.1159559 -3.87162225e-13,25.4470019 -3.87245791e-13,24.6546135 L-3.87245791e-13,23.1598504 C-3.87454948e-13,22.5673571 0.295476837,22.0438762 0.747114389,21.7287237 L0.747381546,20.1897873 C0.747381546,20.041449 0.858919585,19.921197 0.996508728,19.921197 C1.13409787,19.921197 1.24563591,20.041449 1.24563591,20.1897873 L1.24521797,21.4883012 C1.40321498,21.4412356 1.57060092,21.4159601 1.74389027,21.4159601 L1.76060172,21.4158405 C2.26624114,18.5177498 2.85672348,16.2224912 3.53204874,14.5300648 C4.45143429,12.2260013 5.39904379,11.3288071 6.37487724,11.8384824 Z M15.1107399,21.4159601 C14.1783537,21.4159601 12.1011724,23.4128585 11.5545983,24.8436065 C11.0080242,26.2743545 12.9402284,26.6476309 14.4283424,26.6476309 C15.9164563,26.6476309 17.2342103,25.5652163 16.8834768,24.1219967 C16.5327433,22.6787772 16.0431262,21.4159601 15.1107399,21.4159601 Z M6.56332491,21.4159601 C5.63093867,21.4159601 5.14132152,22.6787772 4.79058803,24.1219967 C4.43985454,25.5652163 5.75760855,26.6476309 7.24572247,26.6476309 C8.73383639,26.6476309 10.6660407,26.2743545 10.1194666,24.8436065 C9.57289247,23.4128585 7.49571115,21.4159601 6.56332491,21.4159601 Z" id="Combined-Shape"></path>
            <path d="M29.3240917,31 C29.6625292,31 29.9579198,30.9495312 30.2102636,30.8485937 C30.4626073,30.7476562 30.6733886,30.6155469 30.8426073,30.4522656 C31.0118261,30.2889844 31.137998,30.1049219 31.221123,29.9000781 C31.304248,29.6952344 31.3458105,29.4889062 31.3458105,29.2810938 L31.3458105,29.2810938 L31.3458105,26.1104687 C31.3458105,25.8610937 31.3101855,25.6325 31.2389355,25.4246875 C31.1676855,25.216875 31.0370605,25.0446875 30.8470605,24.908125 C31.0370605,24.765625 31.1676855,24.5845313 31.2389355,24.3648437 C31.3101855,24.1451562 31.3458105,23.89875 31.3458105,23.625625 L31.3458105,23.625625 L31.3458105,20.7578125 C31.3458105,20.5440625 31.304248,20.3332812 31.221123,20.1254687 C31.137998,19.9176563 31.0133105,19.7335938 30.8470605,19.5732813 C30.6808105,19.4129688 30.4715136,19.2823437 30.2191698,19.1814062 C29.9668261,19.0804688 29.6744042,19.03 29.3419042,19.03 L29.3419042,19.03 L27.5606542,19.03 C27.4478417,19.03 27.373623,19.0507812 27.337998,19.0923437 C27.302373,19.1339062 27.2845605,19.208125 27.2845605,19.315 L27.2845605,19.315 L27.2845605,30.715 C27.2845605,30.821875 27.302373,30.8960937 27.337998,30.9376562 C27.373623,30.9792188 27.4478417,31 27.5606542,31 L27.5606542,31 L29.3240917,31 Z M29.3508105,24.2846875 L28.8253417,24.2846875 L28.8253417,20.3303125 L29.3151855,20.3303125 C29.4695605,20.3303125 29.5897948,20.3763281 29.6758886,20.4683594 C29.7619823,20.5603906 29.8050292,20.6598438 29.8050292,20.7667187 L29.8050292,20.7667187 L29.8050292,23.6790625 C29.8050292,23.744375 29.7990917,23.8126562 29.7872167,23.8839062 C29.7753417,23.9551562 29.7515917,24.0204687 29.7159667,24.0798437 C29.6803417,24.1392187 29.6328417,24.1882031 29.5734667,24.2267969 C29.5140917,24.2653906 29.439873,24.2846875 29.3508105,24.2846875 L29.3508105,24.2846875 Z M29.3151855,29.6996875 L28.8253417,29.6996875 L28.8253417,25.5226563 L29.3508105,25.5226563 C29.439873,25.5226563 29.5140917,25.5419531 29.5734667,25.5805469 C29.6328417,25.6191406 29.6803417,25.668125 29.7159667,25.7275 C29.7515917,25.786875 29.7753417,25.8521875 29.7872167,25.9234375 C29.7990917,25.9946875 29.8050292,26.0629687 29.8050292,26.1282813 L29.8050292,26.1282813 L29.8050292,29.2632812 C29.8050292,29.3701563 29.7619823,29.4696094 29.6758886,29.5616406 C29.5897948,29.6536719 29.4695605,29.6996875 29.3151855,29.6996875 L29.3151855,29.6996875 Z M37.4376855,31 C37.550498,31 37.6306542,30.97625 37.6781542,30.92875 C37.7256542,30.88125 37.7494042,30.798125 37.7494042,30.679375 L37.7494042,30.679375 L37.7494042,19.2971875 C37.7494042,19.19625 37.7345605,19.1264844 37.704873,19.0878906 C37.6751855,19.0492969 37.6009667,19.03 37.4822167,19.03 L37.4822167,19.03 L36.7697167,19.03 C36.6212792,19.03 36.4906542,19.0819531 36.3778417,19.1858594 C36.2650292,19.2897656 36.208623,19.4248437 36.208623,19.5910937 L36.208623,19.5910937 L36.208623,30.679375 C36.208623,30.798125 36.232373,30.88125 36.279873,30.92875 C36.327373,30.97625 36.4075292,31 36.5203417,31 L36.5203417,31 L37.4376855,31 Z M43.5919042,31 C43.7403417,31 43.8709667,30.9465625 43.9837792,30.8396875 C44.0965917,30.7328125 44.1529979,30.6021875 44.1529979,30.4478125 L44.1529979,30.4478125 L44.1529979,25.5315625 L44.4825292,25.5315625 L45.2306542,30.4478125 C45.2365917,30.5309375 45.2603417,30.6066406 45.3019042,30.6749219 C45.3434667,30.7432031 45.3969042,30.8010937 45.4622167,30.8485937 C45.5275292,30.8960937 45.5987792,30.9332031 45.6759667,30.9599219 C45.7531542,30.9866406 45.8273729,31 45.8986229,31 L45.8986229,31 L46.6645604,31 C46.7833104,31 46.8515917,30.9792188 46.8694042,30.9376562 C46.8872167,30.8960937 46.8901854,30.8248437 46.8783104,30.7239062 L46.8783104,30.7239062 L45.9698729,24.9348437 L46.8783104,19.3060937 C46.8901854,19.2051562 46.8872167,19.1339062 46.8694042,19.0923437 C46.8515917,19.0507812 46.7833104,19.03 46.6645604,19.03 L46.6645604,19.03 L45.8986229,19.03 C45.7561229,19.03 45.6165917,19.0804688 45.4800292,19.1814062 C45.3434667,19.2823437 45.2603417,19.4159375 45.2306542,19.5821875 L45.2306542,19.5821875 L44.5003417,24.266875 L44.1529979,24.266875 L44.1529979,19.5821875 C44.1529979,19.4278125 44.0965917,19.2971875 43.9837792,19.1903125 C43.8709667,19.0834375 43.7403417,19.03 43.5919042,19.03 L43.5919042,19.03 L42.8883104,19.03 C42.7754979,19.03 42.7012792,19.0507812 42.6656542,19.0923437 C42.6300292,19.1339062 42.6122167,19.208125 42.6122167,19.315 L42.6122167,19.315 L42.6122167,30.715 C42.6122167,30.821875 42.6300292,30.8960937 42.6656542,30.9376562 C42.7012792,30.9792188 42.7754979,31 42.8883104,31 L42.8883104,31 L43.5919042,31 Z M53.5401854,31.178125 C53.8667479,31.178125 54.1562011,31.1291406 54.4085448,31.0311719 C54.6608886,30.9332031 54.8731542,30.8040625 55.0453417,30.64375 C55.2175292,30.4834375 55.3481542,30.299375 55.4372167,30.0915625 C55.5262792,29.88375 55.5708104,29.67 55.5708104,29.4503125 L55.5708104,29.4503125 L55.5708104,20.561875 C55.5708104,20.3303125 55.5262792,20.110625 55.4372167,19.9028125 C55.3481542,19.695 55.2160448,19.5124219 55.0408886,19.3550781 C54.8657323,19.1977344 54.6519823,19.0730469 54.3996386,18.9810156 C54.1472948,18.8889844 53.8608104,18.8429687 53.5401854,18.8429687 C53.2195604,18.8429687 52.9345604,18.8904687 52.6851854,18.9854687 C52.4358104,19.0804688 52.2235448,19.2066406 52.0483886,19.3639844 C51.8732323,19.5213281 51.7396386,19.7039062 51.6476073,19.9117187 C51.5555761,20.1195312 51.5095604,20.33625 51.5095604,20.561875 L51.5095604,20.561875 L51.5095604,29.4503125 C51.5095604,29.67 51.5540917,29.88375 51.6431542,30.0915625 C51.7322167,30.299375 51.8613573,30.4834375 52.0305761,30.64375 C52.1997948,30.8040625 52.4105761,30.9332031 52.6629198,31.0311719 C52.9152636,31.1291406 53.2076854,31.178125 53.5401854,31.178125 Z M53.5579979,29.8421875 C53.3917479,29.8421875 53.2655761,29.7991406 53.1794823,29.7130469 C53.0933886,29.6269531 53.0503417,29.5245312 53.0503417,29.4057813 L53.0503417,29.4057813 L53.0503417,20.6153125 C53.0503417,20.5025 53.0933886,20.4015625 53.1794823,20.3125 C53.2655761,20.2234375 53.3858104,20.1789062 53.5401854,20.1789062 C53.6945604,20.1789062 53.8147948,20.2249219 53.9008886,20.3169531 C53.9869823,20.4089844 54.0300292,20.5084375 54.0300292,20.6153125 L54.0300292,20.6153125 L54.0300292,29.4057813 C54.0300292,29.5067187 53.9899511,29.6046875 53.9097948,29.6996875 C53.8296386,29.7946875 53.7123729,29.8421875 53.5579979,29.8421875 Z M63.3281542,31 C63.4172167,31 63.4884667,30.9747656 63.5419042,30.9242969 C63.5953417,30.8738281 63.6220604,30.8010937 63.6220604,30.7060938 L63.6220604,30.7060938 L63.6220604,30.4745312 C63.6220604,29.9579687 63.3934667,29.6996875 62.9362792,29.6996875 L62.9362792,29.6996875 L61.9476854,29.6996875 L61.9476854,19.5821875 C61.9476854,19.4278125 61.8912792,19.2971875 61.7784667,19.1903125 C61.6656542,19.0834375 61.5350292,19.03 61.3865917,19.03 L61.3865917,19.03 L60.6829979,19.03 C60.5701854,19.03 60.4959667,19.0507812 60.4603417,19.0923437 C60.4247167,19.1339062 60.4069042,19.208125 60.4069042,19.315 L60.4069042,19.315 L60.4069042,30.715 C60.4069042,30.8159375 60.4247167,30.8886719 60.4603417,30.9332031 C60.4959667,30.9777344 60.5701854,31 60.6829979,31 L60.6829979,31 L63.3281542,31 Z M68.9569042,31 C69.0994042,31 69.2285448,30.9480469 69.344326,30.8441406 C69.4601073,30.7402344 69.5239354,30.608125 69.5358104,30.4478125 L69.5358104,30.4478125 L69.6159667,29.040625 L70.5154979,29.040625 L70.6045604,30.4478125 C70.6104979,30.608125 70.6713573,30.7402344 70.7871385,30.8441406 C70.9029198,30.9480469 71.0350292,31 71.1834667,31 L71.1834667,31 L71.9315917,31 C72.0444042,31 72.1156542,30.9792188 72.1453417,30.9376562 C72.1750292,30.8960937 72.1839354,30.8248437 72.1720604,30.7239062 L72.1720604,30.7239062 L71.1389354,19.3417187 C71.1270604,19.2170312 71.0914354,19.1339062 71.0320604,19.0923437 C70.9726854,19.0507812 70.8806542,19.03 70.7559667,19.03 L70.7559667,19.03 L69.3844042,19.03 C69.2656542,19.03 69.1751073,19.0507812 69.1127635,19.0923437 C69.0504198,19.1339062 69.0133104,19.2170312 69.0014354,19.3417187 L69.0014354,19.3417187 L67.9683104,30.7239062 C67.9564354,30.8248437 67.9653417,30.8960937 67.9950292,30.9376562 C68.0247167,30.9792188 68.0989354,31 68.2176854,31 L68.2176854,31 L68.9569042,31 Z M70.4620604,27.79375 L69.6783104,27.79375 L70.0701854,20.8646875 L70.4620604,27.79375 Z M78.7626854,31 C79.1011229,31 79.3965135,30.9495312 79.6488573,30.8485937 C79.901201,30.7476562 80.1119823,30.6155469 80.281201,30.4522656 C80.4504198,30.2889844 80.5765916,30.1049219 80.6597166,29.9000781 C80.7428416,29.6952344 80.7844041,29.4889062 80.7844041,29.2810938 L80.7844041,29.2810938 L80.7844041,26.1104687 C80.7844041,25.8610937 80.7487791,25.6325 80.6775291,25.4246875 C80.6062791,25.216875 80.4756541,25.0446875 80.2856541,24.908125 C80.4756541,24.765625 80.6062791,24.5845313 80.6775291,24.3648437 C80.7487791,24.1451562 80.7844041,23.89875 80.7844041,23.625625 L80.7844041,23.625625 L80.7844041,20.7578125 C80.7844041,20.5440625 80.7428416,20.3332812 80.6597166,20.1254687 C80.5765916,19.9176563 80.4519041,19.7335938 80.2856541,19.5732813 C80.1194041,19.4129688 79.9101073,19.2823437 79.6577635,19.1814062 C79.4054198,19.0804688 79.1129979,19.03 78.7804979,19.03 L78.7804979,19.03 L76.9992479,19.03 C76.8864354,19.03 76.8122166,19.0507812 76.7765916,19.0923437 C76.7409666,19.1339062 76.7231541,19.208125 76.7231541,19.315 L76.7231541,19.315 L76.7231541,30.715 C76.7231541,30.821875 76.7409666,30.8960937 76.7765916,30.9376562 C76.8122166,30.9792188 76.8864354,31 76.9992479,31 L76.9992479,31 L78.7626854,31 Z M78.7894041,24.2846875 L78.2639354,24.2846875 L78.2639354,20.3303125 L78.7537791,20.3303125 C78.9081541,20.3303125 79.0283885,20.3763281 79.1144823,20.4683594 C79.200576,20.5603906 79.2436229,20.6598438 79.2436229,20.7667187 L79.2436229,20.7667187 L79.2436229,23.6790625 C79.2436229,23.744375 79.2376854,23.8126562 79.2258104,23.8839062 C79.2139354,23.9551562 79.1901854,24.0204687 79.1545604,24.0798437 C79.1189354,24.1392187 79.0714354,24.1882031 79.0120604,24.2267969 C78.9526854,24.2653906 78.8784666,24.2846875 78.7894041,24.2846875 L78.7894041,24.2846875 Z M78.7537791,29.6996875 L78.2639354,29.6996875 L78.2639354,25.5226563 L78.7894041,25.5226563 C78.8784666,25.5226563 78.9526854,25.5419531 79.0120604,25.5805469 C79.0714354,25.6191406 79.1189354,25.668125 79.1545604,25.7275 C79.1901854,25.786875 79.2139354,25.8521875 79.2258104,25.9234375 C79.2376854,25.9946875 79.2436229,26.0629687 79.2436229,26.1282813 L79.2436229,26.1282813 L79.2436229,29.2632812 C79.2436229,29.3701563 79.200576,29.4696094 79.1144823,29.5616406 C79.0283885,29.6536719 78.9081541,29.6996875 78.7537791,29.6996875 L78.7537791,29.6996875 Z M87.6600291,31.1870313 C87.9747166,31.1870313 88.2567479,31.1425 88.5061229,31.0534375 C88.7554979,30.964375 88.9677635,30.8426562 89.1429197,30.6882812 C89.318076,30.5339063 89.4531541,30.3528125 89.5481541,30.145 C89.6431541,29.9371875 89.6906541,29.7145313 89.6906541,29.4770312 C89.6906541,28.7882812 89.6283104,28.1603906 89.5036229,27.5933594 C89.3789354,27.0263281 89.223076,26.5008594 89.0360447,26.0169531 C88.8490135,25.5330469 88.6471385,25.074375 88.4304197,24.6409375 C88.213701,24.2075 88.011826,23.7785156 87.8247947,23.3539844 C87.6377635,22.9294531 87.4819041,22.4945313 87.3572166,22.0492188 C87.2325291,21.6039063 87.1701854,21.1259375 87.1701854,20.6153125 C87.1701854,20.514375 87.2117479,20.4164063 87.2948729,20.3214062 C87.3779979,20.2264062 87.4997166,20.1789062 87.6600291,20.1789062 C87.8144041,20.1789062 87.9346385,20.2249219 88.0207322,20.3169531 C88.106826,20.4089844 88.1498729,20.5084375 88.1498729,20.6153125 L88.1498729,20.6153125 L88.1498729,22.770625 C88.1498729,22.9071875 88.2077635,23.0096094 88.3235447,23.0778906 C88.439326,23.1461719 88.5565916,23.1803125 88.6753416,23.1803125 L88.6753416,23.1803125 L89.4234666,23.1803125 C89.6015916,23.1803125 89.6906541,23.0971875 89.6906541,22.9309375 L89.6906541,22.9309375 L89.6906541,20.5529687 C89.6906541,20.3154687 89.6416697,20.0928125 89.543701,19.885 C89.4457322,19.6771875 89.3076854,19.4946094 89.1295604,19.3372656 C88.9514354,19.1799219 88.7347166,19.0567187 88.4794041,18.9676562 C88.2240916,18.8785937 87.9420604,18.8340625 87.6333104,18.8340625 C87.3304979,18.8340625 87.0544041,18.8785937 86.8050291,18.9676562 C86.5556541,19.0567187 86.3448729,19.1799219 86.1726854,19.3372656 C86.0004979,19.4946094 85.8669041,19.6771875 85.7719041,19.885 C85.6769041,20.0928125 85.6294041,20.3154687 85.6294041,20.5529687 C85.6294041,21.2060937 85.6917479,21.8013281 85.8164354,22.3386719 C85.9411229,22.8760156 86.0969822,23.3807031 86.2840135,23.8527344 C86.4710447,24.3247656 86.6729197,24.7760156 86.8896385,25.2064844 C87.1063572,25.6369531 87.3082322,26.0733594 87.4952635,26.5157031 C87.6822947,26.9580469 87.8381541,27.41375 87.9628416,27.8828125 C88.0875291,28.351875 88.1498729,28.8625 88.1498729,29.4146875 C88.1498729,29.5215625 88.106826,29.6195313 88.0207322,29.7085937 C87.9346385,29.7976563 87.8144041,29.8421875 87.6600291,29.8421875 C87.5056541,29.8421875 87.3854197,29.7976563 87.299326,29.7085937 C87.2132322,29.6195313 87.1701854,29.5215625 87.1701854,29.4146875 L87.1701854,29.4146875 L87.1701854,27.3751562 C87.1701854,27.2385937 87.1122947,27.1361719 86.9965135,27.0678906 C86.8807322,26.9996094 86.7634666,26.9654687 86.6447166,26.9654687 L86.6447166,26.9654687 L85.8965916,26.9654687 C85.7184666,26.9654687 85.6294041,27.0515625 85.6294041,27.22375 L85.6294041,27.22375 L85.6294041,29.4770312 C85.6294041,29.7145313 85.6769041,29.9371875 85.7719041,30.145 C85.8669041,30.3528125 86.0019822,30.5339063 86.1771385,30.6882812 C86.3522947,30.8426562 86.5645604,30.964375 86.8139354,31.0534375 C87.0633104,31.1425 87.3453416,31.1870313 87.6600291,31.1870313 Z" id="BIKOLABS" fill-rule="nonzero"></path>
        </g>
    </g>
</svg>