<?xml version="1.0" encoding="UTF-8"?>
<svg width="63px" height="74px" viewBox="0 0 63 74" version="1.1" xmlns="http://www.w3.org/2000/svg" xmlns:xlink="http://www.w3.org/1999/xlink">
    <!-- Generator: Sketch 62 (91390) - https://sketch.com -->
    <title>Triangle</title>
    <desc>Created with Sketch.</desc>
    <g id="Page-1" stroke="none" stroke-width="1" fill="none" fill-rule="evenodd">
        <g id="Desktop-HD" transform="translate(-1120.000000, -428.000000)" fill="#FFFFFF" stroke="#FFFFFF" stroke-width="9.1">
            <path d="M1185.32778,493.85 L1122.67222,493.85 C1122.57557,493.85 1122.48807,493.810825 1122.42474,493.747487 C1122.3614,493.68415 1122.32222,493.59665 1122.32222,493.5 C1122.32222,493.436354 1122.33958,493.373913 1122.37242,493.319396 L1153.7002,441.315287 C1153.75007,441.232499 1153.82878,441.177763 1153.91571,441.156192 C1154.00265,441.134621 1154.09782,441.146216 1154.1806,441.196088 L1185.62758,493.319396 C1185.67745,493.402184 1185.68905,493.49735 1185.66748,493.584286 C1185.64591,493.671223 1185.59117,493.749931 1185.50838,493.799803 C1185.45386,493.832645 1185.39142,493.85 1185.32778,493.85 Z" id="Triangle" transform="translate(1154.000000, 465.200000) rotate(90.000000) translate(-1154.000000, -465.200000) "></path>
        </g>
    </g>
</svg>