<?xml version="1.0" encoding="UTF-8"?>
<svg width="23px" height="26px" viewBox="0 0 23 26" version="1.1" xmlns="http://www.w3.org/2000/svg" xmlns:xlink="http://www.w3.org/1999/xlink">
    <!-- Generator: Sketch 62 (91390) - https://sketch.com -->
    <title>Triangle</title>
    <desc>Created with Sketch.</desc>
    <g id="Page-1" stroke="none" stroke-width="1" fill="none" fill-rule="evenodd">
        <g id="Desktop-HD" transform="translate(-669.000000, -912.000000)" fill="#FFFFFF" stroke="#FFFFFF" stroke-width="3.64">
            <g id="Group-10" transform="translate(611.000000, 873.000000)">
                <path d="M80.8698336,62.0103519 L59.8631507,62.0103519 C59.8244908,62.0103519 59.7894908,61.9946819 59.7641558,61.9693469 C59.7388207,61.9440119 59.7231507,61.9090119 59.7231507,61.8703519 C59.7231507,61.8458893 59.7295605,61.8218537 59.7417416,61.8006395 L70.245083,43.508328 C70.2643336,43.4748018 70.2953509,43.4522524 70.3299371,43.4428971 C70.3645233,43.4335418 70.4026784,43.4373808 70.4362046,43.4566313 L80.9912427,61.8006395 C81.0104933,61.8341657 81.0143322,61.8723208 81.0049769,61.906907 C80.9956217,61.9414932 80.9730722,61.9725105 80.939546,61.9917611 C80.9183318,62.0039421 80.8942962,62.0103519 80.8698336,62.0103519 Z" id="Triangle" transform="translate(70.366492, 51.736111) rotate(90.000000) translate(-70.366492, -51.736111) "></path>
            </g>
        </g>
    </g>
</svg>