<?xml version="1.0" encoding="UTF-8"?>
<svg width="299px" height="415px" viewBox="0 0 299 415" version="1.1" xmlns="http://www.w3.org/2000/svg" xmlns:xlink="http://www.w3.org/1999/xlink">
    <!-- Generator: Sketch 62 (91390) - https://sketch.com -->
    <title>Group 12</title>
    <desc>Created with Sketch.</desc>
    <g id="Page-1" stroke="none" stroke-width="1" fill="none" fill-rule="evenodd">
        <g id="Desktop-HD" transform="translate(-219.000000, -250.000000)">
            <g id="Group-12" transform="translate(219.000000, 250.000000)">
                <g id="Group-3">
                    <g id="Group-2" transform="translate(8.274588, 45.900387)" stroke="#FF2200" stroke-linecap="square" stroke-width="2">
                        <line x1="103.067232" y1="0.417276242" x2="197.371662" y2="7.9282486" id="Line-3"></line>
                        <line x1="197.371662" y1="12.9355635" x2="171.500535" y2="161.485906" id="Line-4"></line>
                        <line x1="171.500535" y1="161.485906" x2="114.750967" y2="161.485906" id="Line-5"></line>
                        <line x1="171.500535" y1="161.485906" x2="114.750967" y2="161.485906" id="Line-5"></line>
                        <line x1="114.750967" y1="161.485906" x2="103.067232" y2="3.75548618" id="Line-6"></line>
                        <line x1="197.371662" y1="12.9355635" x2="224.077342" y2="93.0526019" id="Line-7"></line>
                        <line x1="224.077342" y1="93.0526019" x2="284.999673" y2="148.967618" id="Line-8"></line>
                        <line x1="171.500535" y1="167.327773" x2="197.371662" y2="279.992358" id="Line-9"></line>
                        <line x1="197.371662" y1="284.165121" x2="197.371662" y2="360.943949" id="Line-10"></line>
                        <line x1="92.2180495" y1="284.165121" x2="81.3688672" y2="366.785817" id="Line-11"></line>
                        <line x1="114.750967" y1="167.327773" x2="92.2180495" y2="279.992358" id="Line-12"></line>
                        <line x1="103.067232" y1="3.75548618" x2="52.1595302" y2="87.2107346" id="Line-13"></line>
                        <line x1="52.1595302" y1="87.2107346" x2="0" y2="140.204817" id="Line-14"></line>
                    </g>
                    <circle id="Oval" fill="#FF2200" cx="179.357847" cy="208.638121" r="5.0073149"></circle>
                    <circle id="Oval" fill="#FF2200" cx="112.593648" cy="48.4040441" r="5.0073149"></circle>
                    <circle id="Oval" fill="#FF2200" cx="153.48672" cy="5.0073149" r="5.0073149"></circle>
                    <circle id="Oval" fill="#FF2200" cx="194.935812" cy="26.757839" r="5.0073149"></circle>
                    <circle id="Oval" fill="#FF2200" cx="181.885498" cy="8.48739876" r="5.0073149"></circle>
                    <circle id="Oval" fill="#FF2200" cx="133.353141" cy="16.6910497" r="5.0073149"></circle>
                    <circle id="Oval" fill="#FF2200" cx="124.277383" cy="207.803568" r="5.0073149"></circle>
                    <circle id="Oval" fill="#FF2200" cx="205.228974" cy="327.144574" r="5.0073149"></circle>
                    <circle id="Oval" fill="#FF2200" cx="293.691537" cy="195.214344" r="5.0073149"></circle>
                    <circle id="Oval" fill="#FF2200" cx="5.0073149" cy="189.443414" r="5.0073149"></circle>
                    <circle id="Oval" fill="#FF2200" cx="205.228974" cy="55.0804639" r="5.0073149"></circle>
                    <circle id="Oval" fill="#FF2200" cx="100.075361" cy="327.144574" r="5.0073149"></circle>
                    <circle id="Oval" fill="#FF2200" cx="90.0607313" cy="409.76527" r="5.0073149"></circle>
                    <circle id="Oval" fill="#FF2200" cx="205.228974" cy="408.096165" r="5.0073149"></circle>
                </g>
            </g>
        </g>
    </g>
</svg>