<?xml version="1.0" encoding="UTF-8"?>
<svg width="143px" height="34px" viewBox="0 0 143 34" version="1.1" xmlns="http://www.w3.org/2000/svg" xmlns:xlink="http://www.w3.org/1999/xlink">
    <!-- Generator: Sketch 62 (91390) - https://sketch.com -->
    <title>Asset 2</title>
    <desc>Created with Sketch.</desc>
    <g id="Page-1" stroke="none" stroke-width="1" fill="none" fill-rule="evenodd">
        <g id="Propuesta-1" transform="translate(-776.000000, -11.000000)" fill-rule="nonzero">
            <g id="Asset-2" transform="translate(776.000000, 11.000000)">
                <path d="M103.323871,10.7612903 C103.348058,10.5512013 103.530673,10.3956399 103.741935,10.4051613 L107.72129,10.4051613 C109.630956,10.5536725 111.066357,12.2099041 110.941935,14.1212903 C111.019045,15.3268315 110.593281,16.5104498 109.765906,17.3906355 C108.938531,18.2708212 107.783486,18.7689151 106.575484,18.7664516 L104.624516,18.7664516 L104.005161,23.1329032 C103.977709,23.3228338 103.824475,23.4696833 103.633548,23.4890323 L101.852903,23.4890323 C101.766088,23.4876289 101.684886,23.4458457 101.633276,23.3760215 C101.581667,23.3061974 101.565547,23.2163098 101.589677,23.1329032 L103.323871,10.7612903 Z M106.668387,16.4283871 C107.722233,16.2478036 108.46629,15.2959463 108.387097,14.2296774 C108.430312,13.8547503 108.319608,13.4783279 108.0803,13.1864893 C107.840993,12.8946507 107.493548,12.7123555 107.117419,12.6812903 L105.460645,12.6812903 L104.949677,16.4129032 L106.668387,16.4283871 Z" id="Shape" fill="#FFFFFF"></path>
                <path d="M118.219355,10.2193548 C119.683529,10.2912552 121.058325,10.9450323 122.038182,12.0353781 C123.01804,13.1257239 123.521772,14.5622972 123.437419,16.0258065 C123.529708,17.9529073 122.846391,19.8367033 121.540077,21.2564839 C120.233762,22.6762646 118.413266,23.5137615 116.485161,23.5819355 C115.026546,23.5179517 113.654157,22.8730631 112.673926,21.791028 C111.693695,20.7089929 111.18711,19.2797606 111.267097,17.8219355 C111.166239,15.8881027 111.845251,13.9946194 113.152052,12.5655795 C114.458852,11.1365396 116.284233,10.2913653 118.219355,10.2193548 Z M120.929032,16.3354839 C121.028684,15.4474647 120.76883,14.5564956 120.20742,13.861278 C119.64601,13.1660605 118.829737,12.7244159 117.940645,12.6348387 C115.491837,12.9239433 113.677631,15.0483856 113.775484,17.5122581 C113.680342,18.3920053 113.94103,19.2732603 114.499465,19.9596697 C115.0579,20.646079 115.867683,21.0806127 116.748387,21.1664516 C119.203892,20.922179 121.039857,18.8006194 120.929032,16.3354839 Z" id="Shape" fill="#FFFFFF"></path>
                <path d="M124.04129,21.5845161 L124.769032,20.5316129 C124.836176,20.4407158 124.942477,20.387081 125.055484,20.387081 C125.168491,20.387081 125.274791,20.4407158 125.341935,20.5316129 C125.979147,21.105096 126.793092,21.4437844 127.649032,21.4916129 C128.529502,21.5093777 129.26405,20.8228843 129.305806,19.9432258 C129.305806,19.1225806 128.748387,18.5806452 127.757419,17.8993548 C126.273338,17.2176665 125.256267,15.8067004 125.07871,14.1832258 C125.06523,13.0946087 125.514478,12.0514359 126.314685,11.3132372 C127.114892,10.5750386 128.190838,10.2112064 129.274839,10.3122581 C130.482366,10.31249 131.650792,10.7403643 132.572903,11.52 C132.777637,11.7254438 132.777637,12.057782 132.572903,12.2632258 L131.845161,13.2851613 C131.690323,13.5019355 131.458065,13.5329032 131.194839,13.2851613 C130.61613,12.7730883 129.889427,12.4585452 129.12,12.3870968 C128.299855,12.3856193 127.62082,13.0239114 127.571613,13.8425806 C127.571613,14.5858065 128.067097,14.9574194 129.12,15.7006452 C130.172903,16.443871 131.984516,17.5432258 131.984516,19.5870968 C131.967697,20.7211975 131.478655,21.7968992 130.635153,22.5551688 C129.791652,23.3134384 128.670127,23.6855637 127.540645,23.5819355 C126.219011,23.5761263 124.952034,23.053776 124.010323,22.1264516 C123.870968,22.0335484 123.870968,21.8632258 124.04129,21.5845161 Z" id="Path" fill="#FFFFFF"></path>
                <path d="M135.205161,10.7612903 C135.219861,10.5710265 135.371027,10.4198608 135.56129,10.4051613 L142.451613,10.4051613 C142.538942,10.407793 142.620584,10.449104 142.67443,10.5179074 C142.728276,10.5867109 142.748756,10.675888 142.730323,10.7612903 L142.513548,12.3096774 C142.49165,12.5024115 142.335427,12.6521254 142.141935,12.6658065 L137.357419,12.6658065 L136.923871,15.7625806 L140.903226,15.7625806 C140.988587,15.7701294 141.067005,15.8127124 141.119819,15.8801975 C141.172634,15.9476825 141.195123,16.0340357 141.181935,16.1187097 L140.965161,17.6670968 C140.937709,17.8570273 140.784475,18.0038768 140.593548,18.0232258 L136.614194,18.0232258 L136.149677,21.2748387 L140.903226,21.2748387 C141.089032,21.2748387 141.181935,21.4451613 141.166452,21.6309677 L140.965161,23.1793548 C140.943263,23.372089 140.78704,23.5218029 140.593548,23.5354839 L133.749677,23.5354839 C133.662862,23.5340805 133.58166,23.4922973 133.530051,23.4224731 C133.478441,23.352649 133.462322,23.2627614 133.486452,23.1793548 L135.205161,10.7612903 Z" id="Path" fill="#FFFFFF"></path>
                <path d="M46.5754839,10.7612903 C46.5961146,10.5738142 46.7441367,10.425792 46.9316129,10.4051613 L50.9419355,10.4051613 C52.3610746,10.48088 53.691108,11.1205806 54.6361759,12.1819645 C55.5812437,13.2433484 56.0629688,14.638392 55.9741935,16.0567742 C56.0536851,17.9427565 55.3746732,19.782039 54.0887651,21.1639538 C52.8028571,22.5458686 51.0171402,23.355333 49.1303226,23.4116129 L45.1045161,23.4116129 C45.0204663,23.4056283 44.943636,23.3619399 44.8955166,23.2927683 C44.8473972,23.2235966 44.8331551,23.1363685 44.8567742,23.0554839 L46.5754839,10.7612903 Z M49.2541935,21.1354839 C51.7538437,20.9142216 53.6030117,18.7118417 53.3883871,16.2116129 C53.3883871,14.1832258 52.2425806,12.6503226 50.4619355,12.6503226 L48.7122581,12.6503226 L47.52,21.1354839 L49.2541935,21.1354839 Z" id="Shape" fill="#FFFFFF"></path>
                <path d="M55.4787097,22.916129 L62.4619355,10.4206452 C62.5166712,10.2985529 62.6378134,10.2198105 62.7716129,10.2193548 L62.9419355,10.2193548 C63.0643686,10.2213433 63.1711638,10.3030102 63.2051613,10.4206452 L66.5806452,22.916129 C66.6150279,23.0288865 66.593872,23.1512695 66.5236318,23.2459411 C66.4533915,23.3406128 66.342399,23.3963428 66.2245161,23.396129 L64.676129,23.396129 C64.3974194,23.396129 64.2425806,23.3032258 64.196129,23.0245161 L63.7316129,20.9651613 L59.0864516,20.9651613 L58.0025806,23.0245161 C57.8919474,23.2491852 57.6646025,23.3927715 57.4141935,23.396129 L55.7419355,23.396129 C55.4322581,23.4116129 55.3393548,23.2258065 55.4787097,22.916129 Z M63.1122581,18.9677419 L62.2451613,14.9264516 L62.2451613,14.9264516 L60.2167742,18.9677419 L63.1122581,18.9677419 Z" id="Shape" fill="#FFFFFF"></path>
                <path d="M69.5380645,10.56 C69.5535849,10.3727474 69.7064364,10.2265417 69.8941935,10.2193548 L70.3741935,10.2193548 L76.0412903,18.24 L76.0412903,18.24 L77.0477419,10.7612903 C77.0633219,10.5654927 77.2230717,10.4123991 77.4193548,10.4051613 L79.2154839,10.4051613 C79.3008455,10.41271 79.379263,10.4552931 79.4320774,10.5227781 C79.4848918,10.5902632 79.5073809,10.6766163 79.4941935,10.7612903 L77.7290323,23.2258065 C77.7135119,23.413059 77.5606604,23.5592648 77.3729032,23.5664516 L76.8774194,23.5664516 L71.2258065,15.3290323 L71.2258065,15.3290323 L70.2193548,23.0709677 C70.1974563,23.2637019 70.0412331,23.4134158 69.8477419,23.4270968 L68.0516129,23.4270968 C67.9747255,23.4233072 67.9028296,23.3878855 67.8529732,23.3292309 C67.8031167,23.2705763 67.7797404,23.1939129 67.7883871,23.1174194 L69.5380645,10.56 Z" id="Path" fill="#FFFFFF"></path>
                <path d="M87.4993548,10.2193548 C88.9831566,10.2046917 90.3963837,10.8517114 91.3548387,11.9845161 C91.4925357,12.1329883 91.4925357,12.3624956 91.3548387,12.5109677 L90.3483871,13.4709677 C90.269142,13.5583462 90.1566707,13.6081803 90.0387097,13.6081803 C89.9207487,13.6081803 89.8082774,13.5583462 89.7290323,13.4709677 C89.1080191,12.8762301 88.2818005,12.5435246 87.4219355,12.5419355 C84.9219194,12.7951144 83.0764668,14.9904484 83.2567742,17.4967742 C83.2567742,19.4632258 84.3096774,21.1509677 86.0903226,21.1509677 C87.0228231,21.1263032 87.9144614,20.7630432 88.5987097,20.1290323 C88.8464516,19.9277419 89.0477419,19.9587097 89.1870968,20.1290323 L90.1470968,21.3367742 C90.2252014,21.5048175 90.187869,21.7039235 90.0541935,21.8322581 C88.9511327,22.9668185 87.4403883,23.613484 85.8580645,23.6283871 C84.3600702,23.6246383 82.9316544,22.9956839 81.9174244,21.8932599 C80.9031943,20.790836 80.3952483,19.3150493 80.516129,17.8219355 C80.3978192,15.8785229 81.0750476,13.9705772 82.3921445,12.5366646 C83.7092414,11.102752 85.5529085,10.2662194 87.4993548,10.2193548 L87.4993548,10.2193548 Z" id="Path" fill="#FFFFFF"></path>
                <path d="M93.5070968,10.7612903 C93.5277275,10.5738142 93.6757496,10.425792 93.8632258,10.4051613 L100.738065,10.4051613 C100.825394,10.407793 100.907036,10.449104 100.960882,10.5179074 C101.014728,10.5867109 101.035207,10.675888 101.016774,10.7612903 L100.8,12.3096774 C100.778101,12.5024115 100.621878,12.6521254 100.428387,12.6658065 L95.6593548,12.6658065 L95.2258065,15.7625806 L99.0967742,15.7625806 C99.1821358,15.7701294 99.2605533,15.8127124 99.3133677,15.8801975 C99.3661821,15.9476825 99.3886712,16.0340357 99.3754839,16.1187097 L99.1587097,17.6670968 C99.1312574,17.8570273 98.9780231,18.0038768 98.7870968,18.0232258 L94.916129,18.0232258 L94.4516129,21.2748387 L99.2206452,21.2748387 C99.4064516,21.2748387 99.4993548,21.4451613 99.483871,21.6309677 L99.2825806,23.1793548 C99.2606821,23.372089 99.1044589,23.5218029 98.9109677,23.5354839 L92.036129,23.5354839 C91.9493135,23.5340805 91.8681113,23.4922973 91.8165022,23.4224731 C91.764893,23.352649 91.7487733,23.2627614 91.7729032,23.1793548 L93.5070968,10.7612903 Z" id="Path" fill="#FFFFFF"></path>
                <polyline id="Path" fill="#000000" points="13.8890323 10.7767742 12.7741935 13.1922581 12.7741935 13.1922581"></polyline>
                <path d="M22.5754839,0 L13.7032258,18.9987097 L13.7032258,19.0916129 C13.5962792,19.3424701 13.472112,19.5856308 13.3316129,19.8193548 C12.0461761,22.0030104 9.49316024,23.1009315 7.02395711,22.5319539 C4.55475399,21.9629762 2.73966237,19.8585136 2.53946742,17.3325244 C2.33927247,14.8065351 3.80021215,12.4424337 6.14896509,11.4916133 C8.49771803,10.540793 11.1918051,11.2228598 12.8051613,13.1767742 L13.9354839,10.8387097 C11.2761604,8.40388104 7.3456952,7.97303366 4.22206039,9.77394944 C1.09842558,11.5748652 -0.498054793,15.192245 0.276652062,18.7136398 C1.05135892,22.2350346 4.01860216,24.8483951 7.60964931,25.1720809 C11.2006964,25.4957666 14.5874361,23.4551342 15.9793548,20.1290323 L24.7741935,1.05290323 L22.5754839,0 Z" id="Path" fill="#FFFFFF"></path>
                <polyline id="Path" fill="#000000" points="23.7058065 23.0245161 24.836129 20.6245161 24.836129 20.6245161"></polyline>
                <path d="M15.0193548,33.8167742 L23.9070968,14.8025806 L23.9070968,14.7096774 C24.0220453,14.4420527 24.156605,14.1832842 24.3096774,13.9354839 C25.6234384,11.7742581 28.1850385,10.7120425 30.6426901,11.3093812 C33.1003417,11.9067199 34.8886256,14.0261862 35.0638427,16.549312 C35.2390597,19.0724378 33.7608987,21.4187406 31.4094031,22.3500478 C29.0579074,23.281355 26.3740737,22.5834057 24.7741935,20.6245161 L23.643871,23.04 C26.3031945,25.4748286 30.2336596,25.905676 33.3572944,24.1047602 C36.4809293,22.3038445 38.0774096,18.6864647 37.3027028,15.1650699 C36.5279959,11.6436751 33.5607527,9.03031455 29.9697055,8.7066288 C26.3786584,8.38294305 22.9919188,10.4235755 21.6,13.7496774 L12.7741935,32.763871 L15.0193548,33.8167742 Z" id="Path" fill="#FFFFFF"></path>
            </g>
        </g>
    </g>
</svg>