<?xml version="1.0" encoding="UTF-8"?>
<svg width="18px" height="34px" viewBox="0 0 18 34" version="1.1" xmlns="http://www.w3.org/2000/svg" xmlns:xlink="http://www.w3.org/1999/xlink">
    <!-- Generator: Sketch 62 (91390) - https://sketch.com -->
    <title>Artboard</title>
    <desc>Created with Sketch.</desc>
    <g id="Artboard" stroke="none" stroke-width="1" fill="none" fill-rule="evenodd">
        <path d="M9,14 C9.35145393,14 9.63636364,14.2849097 9.63636364,14.6363636 L9.636,16.363 L11.3636364,16.3636364 C11.7150903,16.3636364 12,16.6485461 12,17 C12,17.3514539 11.7150903,17.6363636 11.3636364,17.6363636 L9.636,17.636 L9.63636364,19.3636364 C9.63636364,19.7150903 9.35145393,20 9,20 C8.64854607,20 8.36363636,19.7150903 8.36363636,19.3636364 L8.363,17.636 L6.63636364,17.6363636 C6.2849097,17.6363636 6,17.3514539 6,17 C6,16.6485461 6.2849097,16.3636364 6.63636364,16.3636364 L8.363,16.363 L8.36363636,14.6363636 C8.36363636,14.2849097 8.64854607,14 9,14 Z" id="Combined-Shape" fill="#FFFFFF"></path>
    </g>
</svg>