<?xml version="1.0" encoding="UTF-8"?>
<svg width="31px" height="37px" viewBox="0 0 31 37" version="1.1" xmlns="http://www.w3.org/2000/svg" xmlns:xlink="http://www.w3.org/1999/xlink">
    <!-- Generator: Sketch 62 (91390) - https://sketch.com -->
    <title>Triangle</title>
    <desc>Created with Sketch.</desc>
    <g id="Page-1" stroke="none" stroke-width="1" fill="none" fill-rule="evenodd">
        <g id="Propuesta-1" transform="translate(-260.000000, -1105.000000)" fill="#FFFFFF" stroke="#FFFFFF" stroke-width="3.64">
            <path d="M292.513305,1138.02417 L260.502401,1138.02417 C260.463741,1138.02417 260.428741,1138.0085 260.403406,1137.98316 C260.378071,1137.95783 260.362401,1137.92283 260.362401,1137.88417 C260.362401,1137.85906 260.369152,1137.83442 260.381946,1137.81282 L276.387399,1110.7915 C276.407101,1110.75824 276.43842,1110.73611 276.47313,1110.72722 C276.50784,1110.71833 276.545939,1110.72269 276.579202,1110.74239 L292.63376,1137.81282 C292.653463,1137.84608 292.657818,1137.88418 292.648931,1137.91889 C292.640045,1137.9536 292.617917,1137.98492 292.584654,1138.00462 C292.563054,1138.01742 292.538411,1138.02417 292.513305,1138.02417 Z" id="Triangle" transform="translate(276.507853, 1123.430556) rotate(90.000000) translate(-276.507853, -1123.430556) "></path>
        </g>
    </g>
</svg>